<svg xmlns="http://www.w3.org/2000/svg" viewBox="0 0 30 30"><defs><style>.cls-1{fill:#a5a5a4;}</style></defs><title>adress</title><g id="Слой_1" data-name="Слой 1"><polygon class="cls-1" points="11.78 25.11 10.38 25.11 10.38 9.41 6.45 9.41 6.45 25.11 5.05 25.11 5.05 8.01 11.78 8.01 11.78 25.11"/><polygon class="cls-1" points="20.45 25.11 19.05 25.11 19.05 9.41 15.12 9.41 15.12 25.11 13.72 25.11 13.72 8.01 20.45 8.01 20.45 25.11"/><polygon class="cls-1" points="8.33 21.71 5.04 18.42 6.03 17.43 8.33 19.73 10.63 17.43 11.62 18.42 8.33 21.71"/><polygon class="cls-1" points="17.12 21.71 13.83 18.42 14.82 17.43 17.12 19.73 19.43 17.43 20.41 18.42 17.12 21.71"/><path class="cls-1" d="M10,9.34H6.77V5.67H10ZM8.17,7.94h.39V7.07H8.17Z"/><path class="cls-1" d="M18.75,9.34H15.56V5.67h3.19ZM17,7.94h.39V7.07H17Z"/><polygon class="cls-1" points="27.53 25.39 5.17 25.39 5.17 23.99 26.13 23.99 26.13 18.56 20.08 18.56 20.08 17.16 27.53 17.16 27.53 25.39"/><rect class="cls-1" x="21.52" y="19.67" width="1.33" height="2.08"/><rect class="cls-1" x="23.75" y="19.67" width="1.33" height="2.08"/></g></svg>